Coordinates
version=1
nRows=12
nColumns=42
inDegrees=yes

Units are S.I. units (second, meters, Newtons, ...)
If the header above contains a line with 'inDegrees', this indicates whether rotational values are in degrees (yes) or radians (no).

endheader
time	pelvis_tilt	pelvis_list	pelvis_rotation	pelvis_tx	pelvis_ty	pelvis_tz	hip_flexion_r	hip_adduction_r	hip_rotation_r	knee_angle_r	knee_adduction_r	knee_angle_r_beta	ankle_angle_r	subtalar_angle_r	mtp_angle_r	hip_flexion_l	hip_adduction_l	hip_rotation_l	knee_angle_l	knee_adduction_l	knee_angle_l_beta	ankle_angle_l	subtalar_angle_l	mtp_angle_l	lumbar_extension	lumbar_bending	lumbar_rotation	arm_flex_r	arm_add_r	arm_rot_r	elbow_flex_r	pro_sup_r	wrist_flex_r	wrist_dev_r	arm_flex_l	arm_add_l	arm_rot_l	elbow_flex_l	pro_sup_l	wrist_flex_l	wrist_dev_l
      2.00000000	     20.63950174	      3.56462502	     -0.54223338	      0.76949334	      0.88439280	     -0.26812200	    -29.53986855	     -5.94848413	    -19.84555027	     45.20155621	     -3.27781903	      0.78891598	      7.10940621	     11.09606474	     -7.51663781	      7.53751963	      8.91352420	     -4.22865086	     36.10982642	     -0.73187934	      0.63023536	     11.27222078	     -9.51956835	     -7.51663781	    -38.90745624	     -2.73453944	      1.57018710	     15.18193157	    -11.24690348	     -6.93113246	     40.55610659	     90.00000001	      0.00000000	      0.00000000	      2.30438396	     -1.62196926	    -38.04310452	     34.15177667	     90.00000001	      0.00000000	      0.00000000
      2.01000000	     21.13901655	      3.94392799	     -0.34867614	      0.77935439	      0.88567682	     -0.26933420	    -29.37026511	     -6.53160586	    -19.45115537	     47.32765220	     -3.18880181	      0.82602336	      4.88345762	     10.14481571	     -7.51636596	      6.25090264	      9.48109639	     -4.36887461	     36.11753120	     -0.95181925	      0.63036984	     12.09513549	     -9.29385870	     -7.51636596	    -39.40664966	     -3.01787569	      1.36210670	     14.41848033	    -11.18315741	     -7.18321526	     40.22973807	     90.00000001	      0.00000000	      0.00000000	      2.58610111	     -1.74733353	    -37.93933711	     34.33158502	     90.00000001	      0.00000000	      0.00000000
      2.02000000	     21.61998727	      4.22563368	     -0.18947664	      0.78902818	      0.88695995	     -0.27037618	    -29.01755244	     -6.99543673	    -18.92423901	     49.56405224	     -3.09811010	      0.86505590	      2.91078516	      8.72602002	     -7.51607016	      4.96160243	      9.85139580	     -4.64656632	     36.08342543	     -1.13718297	      0.62977458	     12.90606919	     -8.77116138	     -7.51607016	    -39.88603160	     -3.23870507	      1.20959782	     13.65662900	    -11.02819305	     -7.44752101	     39.93298134	     90.00000001	      0.00000000	      0.00000000	      2.81652961	     -1.87802152	    -37.78086653	     34.58096814	     90.00000001	      0.00000000	      0.00000000
      2.03000000	     21.99530404	      4.27546451	      0.01548442	      0.79829031	      0.88831792	     -0.27133620	    -28.43522367	     -6.98675487	    -16.87280284	     51.81388539	     -2.12919892	      0.90432290	     -0.16278799	      3.00163649	     -7.51503226	      3.87447504	      9.83917093	     -5.42559887	     36.14728976	     -1.45289984	      0.63088922	     14.21017883	     -6.72184803	     -7.51503226	    -40.33117281	     -3.17004577	      1.10667836	     13.15574605	    -10.74050186	     -8.65511690	     39.44408615	     90.00000001	      0.00000000	      0.00000000	      3.01676142	     -1.98347509	    -37.20188582	     34.99729249	     90.00000001	      0.00000000	      0.00000000
      2.04000000	     22.20162850	      4.44113439	      0.15621487	      0.80733380	      0.88937112	     -0.27227481	    -27.40337501	     -7.28683545	    -15.99224286	     54.32312695	     -1.88138252	      0.94811743	     -1.85511929	      0.29549102	     -7.51417474	      2.91003701	     10.01531277	     -5.84572707	     36.05997052	     -1.64131677	      0.62936521	     15.12007584	     -5.70169656	     -7.51417474	    -40.60881211	     -3.25959821	      0.97447337	     12.60013014	    -10.48814034	     -9.39685579	     38.95876825	     90.00000001	      0.00000000	      0.00000000	      3.28515395	     -2.10401053	    -36.77379921	     35.22178600	     90.00000001	      0.00000000	      0.00000000
      2.05000000	     22.27728653	      4.55753988	      0.26230396	      0.81609471	      0.89029357	     -0.27314284	    -26.06924449	     -7.54988883	    -14.99488907	     56.90056176	     -1.55806314	      0.99310215	     -2.95613426	     -2.61395421	     -7.51330406	      2.10454498	     10.12933493	     -6.20149546	     35.95612587	     -1.76949598	      0.62755278	     15.93051645	     -4.82763805	     -7.51330406	    -40.77629593	     -3.31320116	      0.89884518	     12.07507138	    -10.26299392	    -10.13454086	     38.41013741	     90.00000001	      0.00000000	      0.00000000	      3.59279466	     -2.21861147	    -36.36730728	     35.47638960	     90.00000001	      0.00000000	      0.00000000
      2.06000000	     22.30024995	      4.65393175	      0.34041694	      0.82461593	      0.89114797	     -0.27392018	    -24.56404429	     -7.79725186	    -14.07008870	     59.44459783	     -1.28209698	      1.03750395	     -3.58328826	     -5.48245847	     -7.51229554	      1.35325442	     10.22312579	     -6.43257562	     35.81571163	     -1.83112632	      0.62510209	     16.63160306	     -4.12321496	     -7.51229554	    -40.90537787	     -3.35779517	      0.82427603	     11.60421461	     -9.99650670	    -10.94780281	     37.85010918	     90.00000001	      0.00000000	      0.00000000	      3.91047238	     -2.33468215	    -35.95174382	     35.73050239	     90.00000001	      0.00000000	      0.00000000
      2.07000000	     22.34123867	      4.79300574	      0.36427427	      0.83301963	      0.89198933	     -0.27464865	    -22.97881985	     -8.16599930	    -13.96566908	     61.88538492	     -1.64174856	      1.08010373	     -3.03544675	     -6.48416531	     -7.51205056	      0.52424991	     10.37333867	     -6.49152408	     35.54792380	     -1.76423787	      0.62042831	     17.13794156	     -3.83723201	     -7.51205056	    -41.06643392	     -3.46827907	      0.75310382	     10.97288015	     -9.90723647	    -11.08501937	     37.57328178	     90.00000001	      0.00000000	      0.00000000	      4.26869389	     -2.39932536	    -35.77599019	     36.01495961	     90.00000001	      0.00000000	      0.00000000
      2.08000000	     22.24951453	      4.74998097	      0.45802473	      0.84106175	      0.89275486	     -0.27530275	    -21.20008022	     -8.20912557	    -12.85358289	     64.20471534	     -1.18406215	      1.12058368	     -3.13018458	    -10.55655434	     -7.51134769	     -0.06214996	     10.31323369	     -6.33816103	     35.46500347	     -1.64345048	      0.61898108	     17.84191309	     -3.44820433	     -7.51134769	    -41.11385144	     -3.36121862	      0.65043657	     10.74708717	     -9.60031093	    -12.02537280	     36.67578452	     90.00000001	      0.00000000	      0.00000000	      4.59504016	     -2.54585799	    -35.33723855	     36.24093374	     90.00000001	      0.00000000	      0.00000000
      2.09000000	     22.30527203	      4.83471914	      0.42799162	      0.84914164	      0.89363133	     -0.27589813	    -19.53586934	     -8.52059010	    -12.91522484	     66.29096456	     -1.68445051	      1.15699560	     -1.85119118	    -11.67243319	     -7.51114224	     -0.91893463	     10.42116193	     -6.27031958	     35.13401409	     -1.52719882	      0.61320423	     18.24940341	     -3.25403046	     -7.51114224	    -41.29670768	     -3.42800685	      0.58746271	     10.17908204	     -9.47783073	    -12.20048108	     36.41256334	     90.00000001	      0.00000000	      0.00000000	      4.97559558	     -2.62037020	    -35.16104376	     36.51944950	     90.00000001	      0.00000000	      0.00000000
      2.10000000	     22.27261740	      4.86606114	      0.46992466	      0.85700557	      0.89441577	     -0.27647626	    -17.75744143	     -8.71844077	    -12.95818703	     68.18102231	     -2.12909067	      1.18998333	     -0.27693729	    -13.32366649	     -7.51093781	     -1.63192497	     10.48835045	     -5.97752126	     34.87148503	     -1.38203951	      0.60862223	     18.75006324	     -3.15237220	     -7.51093781	    -41.41265337	     -3.39648349	      0.46637486	      9.70954296	     -9.32790726	    -12.47208559	     36.01398316	     90.00000001	      0.00000000	      0.00000000	      5.35723309	     -2.73068732	    -34.95389276	     36.78429468	     90.00000001	      0.00000000	      0.00000000
      2.11000000	     22.27492577	      4.82780964	      0.46054371	      0.86471324	      0.89526783	     -0.27697658	    -15.98869569	     -8.86699682	    -12.99072527	     69.82346633	     -2.55437901	      1.21864938	      1.29587253	    -14.84591459	     -7.51075122	     -2.39016326	     10.47432140	     -5.66242016	     34.59914210	     -1.19054239	      0.60386895	     19.18018423	     -3.14197824	     -7.51075122	    -41.55846935	     -3.32832293	      0.36330987	      9.32808282	     -9.16531437	    -12.78186277	     35.57195347	     90.00000001	      0.00000000	      0.00000000	      5.73192319	     -2.83807929	    -34.72944326	     37.03626810	     90.00000001	      0.00000000	      0.00000000
